<?xml version="1.0" encoding="UTF-8" standalone="no"?>
<!-- Created with Inkscape (http://www.inkscape.org/) -->

<svg
   width="640"
   height="320"
   viewBox="0 0 169.33333 84.666667"
   version="1.1"
   id="svg1"
   inkscape:version="1.4.3 (0d15f75, 2025-12-25)"
   sodipodi:docname="MainGame_ComboNumbers.svg"
   xml:space="preserve"
   inkscape:export-batch-path="export_mg_hud_1080"
   inkscape:export-batch-name=""
   xmlns:inkscape="http://www.inkscape.org/namespaces/inkscape"
   xmlns:sodipodi="http://sodipodi.sourceforge.net/DTD/sodipodi-0.dtd"
   xmlns:xlink="http://www.w3.org/1999/xlink"
   xmlns="http://www.w3.org/2000/svg"
   xmlns:svg="http://www.w3.org/2000/svg"><sodipodi:namedview
     id="namedview1"
     pagecolor="#ababab"
     bordercolor="#000000"
     borderopacity="0.25"
     inkscape:showpageshadow="2"
     inkscape:pageopacity="0.0"
     inkscape:pagecheckerboard="0"
     inkscape:deskcolor="#d1d1d1"
     inkscape:document-units="px"
     inkscape:zoom="2"
     inkscape:cx="315.25"
     inkscape:cy="51"
     inkscape:window-width="1920"
     inkscape:window-height="1017"
     inkscape:window-x="-8"
     inkscape:window-y="-8"
     inkscape:window-maximized="1"
     inkscape:current-layer="layer10" /><defs
     id="defs1"><rect
       x="292.74219"
       y="241.83051"
       width="403.23923"
       height="48.84729"
       id="rect1" /><linearGradient
       id="linearGradient111"
       inkscape:label="combooutline_projmusic"><stop
         style="stop-color:#666666;stop-opacity:1;"
         offset="0"
         id="stop112" /><stop
         style="stop-color:#525252;stop-opacity:1;"
         offset="0.5"
         id="stop113" /><stop
         style="stop-color:#909090;stop-opacity:1;"
         offset="0.52000001"
         id="stop114" /><stop
         style="stop-color:#545454;stop-opacity:1;"
         offset="1"
         id="stop115" /></linearGradient><linearGradient
       id="linearGradient111-1"
       inkscape:label="sboutline_projmusic"><stop
         style="stop-color:#333333;stop-opacity:1;"
         offset="0"
         id="stop109" /><stop
         style="stop-color:#666666;stop-opacity:1;"
         offset="1"
         id="stop111" /></linearGradient><linearGradient
       id="linearGradient107"
       inkscape:label="scorebonus_projmusic"><stop
         style="stop-color:#aeaeae;stop-opacity:1;"
         offset="0"
         id="stop107" /><stop
         style="stop-color:#e3e3e3;stop-opacity:1;"
         offset="0.99000001"
         id="stop104" /></linearGradient><linearGradient
       id="linearGradient101"
       inkscape:label="combooutline_projmusic"><stop
         style="stop-color:#545454;stop-opacity:1;"
         offset="0"
         id="stop98" /><stop
         style="stop-color:#909090;stop-opacity:1;"
         offset="0.47999999"
         id="stop99" /><stop
         style="stop-color:#525252;stop-opacity:1;"
         offset="0.5"
         id="stop100" /><stop
         style="stop-color:#666666;stop-opacity:1;"
         offset="1"
         id="stop101" /></linearGradient><linearGradient
       id="linearGradient1-6"
       inkscape:label="scorebonus_projmusic"><stop
         style="stop-color:#e3e3e3;stop-opacity:1;"
         offset="0"
         id="stop94" /><stop
         style="stop-color:#e4e4e4;stop-opacity:1;"
         offset="0.47999999"
         id="stop95" /><stop
         style="stop-color:#bfbfbf;stop-opacity:1;"
         offset="0.5"
         id="stop96" /><stop
         style="stop-color:#cdcdcd;stop-opacity:1;"
         offset="1"
         id="stop97" /></linearGradient><linearGradient
       id="linearGradient1-10"
       inkscape:label="score_projmusic"><stop
         style="stop-color:#e3e3e3;stop-opacity:1;"
         offset="0.44884726"
         id="stop87" /><stop
         style="stop-color:#aaaaaa;stop-opacity:1;"
         offset="1"
         id="stop89" /></linearGradient><linearGradient
       id="linearGradient1-9"
       inkscape:label="combooutline_projmusic"><stop
         style="stop-color:#545454;stop-opacity:1;"
         offset="0"
         id="stop83" /><stop
         style="stop-color:#909090;stop-opacity:1;"
         offset="0.47999999"
         id="stop80" /><stop
         style="stop-color:#333333;stop-opacity:1;"
         offset="0.5"
         id="stop84" /><stop
         style="stop-color:#666666;stop-opacity:1;"
         offset="1"
         id="stop85" /></linearGradient><linearGradient
       inkscape:collect="always"
       xlink:href="#linearGradient1-9"
       id="linearGradient91"
       gradientUnits="userSpaceOnUse"
       x1="120.52588"
       y1="86.414536"
       x2="120.52588"
       y2="99.149673" /><linearGradient
       inkscape:collect="always"
       xlink:href="#linearGradient1-10"
       id="linearGradient3"
       x1="467.81183"
       y1="248.34019"
       x2="467.81183"
       y2="277.43997"
       gradientUnits="userSpaceOnUse"
       gradientTransform="matrix(0.23738442,0,0,0.26725697,56.79871,2.0016528)" /><rect
       x="292.74219"
       y="241.83051"
       width="403.23923"
       height="48.84729"
       id="rect3" /><filter
       inkscape:collect="always"
       style="color-interpolation-filters:sRGB"
       id="filter3"
       x="-0.36524898"
       y="-0.17709041"
       width="1.730498"
       height="1.3541808"><feGaussianBlur
         inkscape:collect="always"
         stdDeviation="0.87782642"
         id="feGaussianBlur3" /></filter><linearGradient
       inkscape:collect="always"
       xlink:href="#linearGradient1-10"
       id="linearGradient79"
       gradientUnits="userSpaceOnUse"
       x1="467.81183"
       y1="248.34019"
       x2="467.81183"
       y2="277.43997"
       gradientTransform="matrix(0.23738442,0,0,0.26725696,56.79871,2.0016528)" /><linearGradient
       inkscape:collect="always"
       xlink:href="#linearGradient1-10"
       id="linearGradient87"
       gradientUnits="userSpaceOnUse"
       x1="467.81183"
       y1="248.34019"
       x2="467.81183"
       y2="277.43997"
       gradientTransform="matrix(0.23738442,0,0,0.26725697,56.79871,2.0016528)" /><linearGradient
       inkscape:collect="always"
       xlink:href="#linearGradient1-10"
       id="linearGradient88"
       gradientUnits="userSpaceOnUse"
       x1="467.81183"
       y1="248.34019"
       x2="467.81183"
       y2="277.43997"
       gradientTransform="matrix(0.23738442,0,0,0.26725697,56.79871,2.0016528)" /><linearGradient
       inkscape:collect="always"
       xlink:href="#linearGradient1-10"
       id="linearGradient89"
       gradientUnits="userSpaceOnUse"
       x1="467.81183"
       y1="248.34019"
       x2="467.81183"
       y2="277.43997"
       gradientTransform="matrix(0.23738442,0,0,0.26725697,56.79871,2.0016528)" /><linearGradient
       inkscape:collect="always"
       xlink:href="#linearGradient1-10"
       id="linearGradient90"
       gradientUnits="userSpaceOnUse"
       x1="467.81183"
       y1="248.34019"
       x2="467.81183"
       y2="277.43997"
       gradientTransform="matrix(0.23738442,0,0,0.26725697,56.79871,2.0016528)" /><linearGradient
       inkscape:collect="always"
       xlink:href="#linearGradient1-10"
       id="linearGradient92"
       gradientUnits="userSpaceOnUse"
       x1="467.81183"
       y1="248.34019"
       x2="467.81183"
       y2="277.43997"
       gradientTransform="matrix(0.23738442,0,0,0.26725697,56.79871,2.0016528)" /><linearGradient
       inkscape:collect="always"
       xlink:href="#linearGradient1-10"
       id="linearGradient93"
       gradientUnits="userSpaceOnUse"
       x1="467.81183"
       y1="248.34019"
       x2="467.81183"
       y2="277.43997"
       gradientTransform="matrix(0.23738442,0,0,0.26725697,56.79871,2.0016528)" /><linearGradient
       inkscape:collect="always"
       xlink:href="#linearGradient1-10"
       id="linearGradient94"
       gradientUnits="userSpaceOnUse"
       x1="467.81183"
       y1="248.34019"
       x2="467.81183"
       y2="277.43997"
       gradientTransform="matrix(0.23738442,0,0,0.26725697,56.79871,2.0016528)" /><linearGradient
       inkscape:collect="always"
       xlink:href="#linearGradient1-10"
       id="linearGradient95"
       gradientUnits="userSpaceOnUse"
       x1="467.81183"
       y1="248.34019"
       x2="467.81183"
       y2="277.43997"
       gradientTransform="matrix(0.23738442,0,0,0.26725697,56.79871,2.0016528)" /></defs><g
     inkscape:groupmode="layer"
     id="layer2"
     inkscape:label="refs" /><g
     inkscape:groupmode="layer"
     id="layer5"
     inkscape:label="Combo_0"
     transform="translate(-121.78189,-65.745807)"><path
       id="path70"
       style="font-size:36px;font-family:Xolonium;-inkscape-font-specification:Xolonium;letter-spacing:10.5044px;white-space:pre;opacity:0.3;stroke:#000000;stroke-width:4.20177;stroke-linecap:square;stroke-linejoin:round;paint-order:markers stroke fill;filter:url(#filter3)"
       d="m 300.30198,251.0099 c -2.0387,-0.076 -4.63444,0.60722 -5.20901,2.85154 -0.35584,1.8887 -0.12244,3.83305 -0.18973,5.74788 0.0292,3.87041 -0.0599,7.74565 0.0474,11.61287 0.12501,2.08023 2.14696,3.39631 4.08574,3.48013 3.8218,0.14483 7.65298,0.0316 11.47872,0.0675 2.03134,0.0805 4.64276,-0.44425 5.3678,-2.63639 0.46328,-1.78241 0.1795,-3.65219 0.25824,-5.47669 -0.0294,-4.03252 0.0602,-8.06988 -0.0474,-12.09921 -0.12501,-2.08023 -2.14696,-3.39631 -4.08574,-3.48013 -3.8218,-0.14483 -7.65298,-0.0316 -11.47872,-0.0675 -0.0758,0 -0.15153,0 -0.2273,0 z m 1.07974,3.06086 c 2.8738,0.0121 5.7489,-0.0243 8.62187,0.0184 1.2736,0.025 1.11127,1.40992 1.09803,2.29928 -0.0146,4.81188 0.0292,9.62617 -0.022,14.43655 -0.32206,1.22771 -1.82304,0.80915 -2.77872,0.88585 -2.41988,-0.012 -4.84107,0.0243 -7.26012,-0.0185 -1.2735,-0.0263 -1.11126,-1.41134 -1.09803,-2.30113 0.0145,-4.81186 -0.0292,-9.62611 0.022,-14.43647 0.0824,-0.67847 0.83048,-0.91139 1.41697,-0.884 z"
       transform="matrix(0.23738442,0,0,0.26725697,56.79871,2.4351278)" /><path
       id="path60"
       style="font-size:36px;font-family:Xolonium;-inkscape-font-specification:Xolonium;letter-spacing:10.5044px;white-space:pre;display:inline;fill:url(#linearGradient79);stroke:#3c3c3c;stroke-width:1.05833;stroke-linecap:square;stroke-linejoin:round;paint-order:markers stroke fill"
       d="m 128.08572,69.085704 c -0.48395,-0.02031 -1.10014,0.162284 -1.23654,0.762094 -0.0845,0.504769 -0.0291,1.02441 -0.045,1.536161 0.007,1.034394 -0.0142,2.070079 0.0113,3.103621 0.0297,0.555956 0.50966,0.90769 0.96989,0.930091 0.90724,0.03871 1.8167,0.0084 2.72487,0.01803 0.48221,0.02151 1.10213,-0.118729 1.27424,-0.704596 0.10997,-0.476362 0.0426,-0.976074 0.0613,-1.463684 -0.007,-1.077719 0.0143,-2.156732 -0.0113,-3.233598 -0.0297,-0.555956 -0.50966,-0.907688 -0.96989,-0.930089 -0.90724,-0.03871 -1.8167,-0.0084 -2.72487,-0.01803 -0.018,0 -0.036,0 -0.054,0 z m 0.25631,0.818039 c 0.6822,0.0032 1.36471,-0.0065 2.0467,0.0049 0.30231,0.007 0.2638,0.377188 0.26066,0.614991 -0.003,1.285837 0.007,2.572318 -0.005,3.857755 -0.0765,0.328114 -0.43276,0.216248 -0.65962,0.236747 -0.57444,-0.0032 -1.14919,0.0065 -1.72344,-0.0049 -0.30231,-0.007 -0.2638,-0.377188 -0.26065,-0.614991 0.003,-1.285837 -0.007,-2.572318 0.005,-3.857755 0.0195,-0.181355 0.19698,-0.24412 0.33636,-0.236747 z" /></g><g
     inkscape:groupmode="layer"
     id="layer6"
     inkscape:label="Combo_1"
     transform="translate(-121.78189,-65.745807)"><path
       style="font-size:36px;font-family:Xolonium;-inkscape-font-specification:Xolonium;letter-spacing:10.5044px;white-space:pre;opacity:0.3;stroke:#000000;stroke-width:4.20177;stroke-linecap:square;stroke-linejoin:round;paint-order:markers stroke fill;filter:url(#filter3)"
       d="m 334.56656,254.07008 h 6.48 v 20.7 h 5.04 v -23.76 h -11.52 z"
       transform="matrix(0.23738442,0,0,0.26725697,56.79871,2.4351278)"
       id="path71" /><path
       style="font-size:36px;font-family:Xolonium;-inkscape-font-specification:Xolonium;letter-spacing:10.5044px;white-space:pre;display:inline;fill:url(#linearGradient3);stroke:#3c3c3c;stroke-width:1.05833;stroke-linecap:square;stroke-linejoin:round;paint-order:markers stroke fill"
       d="m 136.2196,69.903653 h 1.53825 v 5.532219 h 1.19642 v -6.350026 h -2.73467 z"
       id="path61" /></g><g
     inkscape:groupmode="layer"
     id="layer7"
     inkscape:label="Combo_2"
     transform="translate(-121.78189,-65.745807)"><path
       style="font-size:36px;font-family:Xolonium;-inkscape-font-specification:Xolonium;letter-spacing:10.5044px;white-space:pre;opacity:0.3;stroke:#000000;stroke-width:4.20177;stroke-linecap:square;stroke-linejoin:round;paint-order:markers stroke fill;filter:url(#filter3)"
       d="m 367.03093,274.77008 h 21.24 v -3.06 h -16.2 v -6.948 c 0,-0.756 0.468,-1.152 1.44,-1.152 h 9.36 c 3.6,0 5.4,-1.44 5.4,-4.32 v -3.96 c 0,-2.88 -1.8,-4.32 -5.4,-4.32 h -14.04 v 3.06 h 12.96 c 0.972,0 1.44,0.396 1.44,1.152 v 4.176 c 0,0.756 -0.468,1.152 -1.44,1.152 h -9.36 c -3.6,0 -5.4,1.44 -5.4,4.32 z"
       transform="matrix(0.23738442,0,0,0.26725697,56.79871,2.4351278)"
       id="path72" /><path
       style="font-size:36px;font-family:Xolonium;-inkscape-font-specification:Xolonium;letter-spacing:10.5044px;white-space:pre;display:inline;fill:url(#linearGradient95);stroke:#3c3c3c;stroke-width:1.05833;stroke-linecap:square;stroke-linejoin:round;paint-order:markers stroke fill"
       d="m 143.92613,75.435872 h 5.04205 v -0.817806 h -3.84563 v -1.856902 c 0,-0.202046 0.1111,-0.30788 0.34184,-0.30788 h 2.22191 c 0.85459,0 1.28188,-0.38485 1.28188,-1.15455 v -1.058338 c 0,-0.7697 -0.42729,-1.15455 -1.28188,-1.15455 h -3.33287 v 0.817807 h 3.0765 c 0.23074,0 0.34183,0.105833 0.34183,0.30788 v 1.116065 c 0,0.202046 -0.11109,0.30788 -0.34183,0.30788 h -2.22192 c -0.85458,0 -1.28188,0.38485 -1.28188,1.15455 z"
       id="path62" /></g><g
     inkscape:groupmode="layer"
     id="layer8"
     inkscape:label="Combo_3"
     transform="translate(-121.78189,-65.745807)"><path
       style="font-size:36px;font-family:Xolonium;-inkscape-font-specification:Xolonium;letter-spacing:10.5044px;white-space:pre;opacity:0.3;stroke:#000000;stroke-width:4.20177;stroke-linecap:square;stroke-linejoin:round;paint-order:markers stroke fill;filter:url(#filter3)"
       d="m 403.81529,274.77008 h 15.12 c 3.6,0 5.4,-1.44 5.4,-4.32 v -4.572 c 0,-1.98 -0.828,-3.24 -2.52,-3.888 1.692,-0.648 2.52,-1.908 2.52,-3.888 v -2.772 c 0,-2.88 -1.8,-4.32 -5.4,-4.32 h -15.12 v 3.06 h 14.04 c 0.972,0 1.44,0.396 1.44,1.152 v 4.176 c 0,0.756 -0.468,1.152 -1.44,1.152 h -10.8 v 3.06 h 10.8 c 0.972,0 1.44,0.396 1.44,1.152 v 5.796 c 0,0.756 -0.468,1.152 -1.44,1.152 h -14.04 z"
       transform="matrix(0.23738442,0,0,0.26725697,56.79871,2.4351278)"
       id="path73" /><path
       style="font-size:36px;font-family:Xolonium;-inkscape-font-specification:Xolonium;letter-spacing:10.5044px;white-space:pre;display:inline;fill:url(#linearGradient94);stroke:#3c3c3c;stroke-width:1.05833;stroke-linecap:square;stroke-linejoin:round;paint-order:markers stroke fill"
       d="m 152.65817,75.435872 h 3.58925 c 0.85458,0 1.28188,-0.38485 1.28188,-1.15455 v -1.221899 c 0,-0.529169 -0.19656,-0.865913 -0.59821,-1.039095 0.40165,-0.173183 0.59821,-0.509927 0.59821,-1.039095 v -0.740837 c 0,-0.7697 -0.4273,-1.15455 -1.28188,-1.15455 h -3.58925 v 0.817807 h 3.33288 c 0.23073,0 0.34183,0.105833 0.34183,0.30788 v 1.116065 c 0,0.202046 -0.1111,0.30788 -0.34183,0.30788 h -2.56376 v 0.817806 h 2.56376 c 0.23073,0 0.34183,0.105834 0.34183,0.30788 v 1.549021 c 0,0.202047 -0.1111,0.307881 -0.34183,0.307881 h -3.33288 z"
       id="path63" /></g><g
     inkscape:groupmode="layer"
     id="layer9"
     inkscape:label="Combo_4"
     transform="translate(-121.78189,-65.745807)"><path
       style="font-size:36px;font-family:Xolonium;-inkscape-font-specification:Xolonium;letter-spacing:10.5044px;white-space:pre;opacity:0.3;stroke:#000000;stroke-width:4.20177;stroke-linecap:square;stroke-linejoin:round;paint-order:markers stroke fill;filter:url(#filter3)"
       d="m 439.15966,269.91008 h 16.2 v 4.86 h 5.04 v -23.76 h -6.3 l -14.94,15.84 z m 5.832,-3.06 10.368,-10.98 v 10.98 z"
       transform="matrix(0.23738442,0,0,0.26725697,56.79871,2.4351278)"
       id="path74" /><path
       style="font-size:36px;font-family:Xolonium;-inkscape-font-specification:Xolonium;letter-spacing:10.5044px;white-space:pre;display:inline;fill:url(#linearGradient93);stroke:#3c3c3c;stroke-width:1.05833;stroke-linecap:square;stroke-linejoin:round;paint-order:markers stroke fill"
       d="m 161.04837,74.137003 h 3.84563 v 1.298869 h 1.19642 v -6.350026 h -1.49553 l -3.54652,4.233351 z m 1.38443,-0.817806 2.4612,-2.934482 v 2.934482 z"
       id="path64" /></g><g
     inkscape:groupmode="layer"
     id="layer10"
     inkscape:label="Combo_5"
     transform="translate(-121.78189,-65.745807)"><path
       style="font-size:36px;font-family:Xolonium;-inkscape-font-specification:Xolonium;letter-spacing:10.5044px;white-space:pre;opacity:0.3;stroke:#000000;stroke-width:4.20177;stroke-linecap:square;stroke-linejoin:round;paint-order:markers stroke fill;filter:url(#filter3)"
       d="m 475.22403,274.77008 h 15.84 c 3.6,0 5.4,-1.44 5.4,-4.32 v -5.58 c 0,-2.88 -1.8,-4.32 -5.4,-4.32 h -10.8 v -6.48 h 14.76 v -3.06 h -19.8 v 12.6 h 14.76 c 0.972,0 1.44,0.396 1.44,1.152 v 5.796 c 0,0.756 -0.468,1.152 -1.44,1.152 h -14.76 z"
       transform="matrix(0.23738442,0,0,0.26725697,56.79871,2.4351278)"
       id="path75" /><path
       style="font-size:36px;font-family:Xolonium;-inkscape-font-specification:Xolonium;letter-spacing:10.5044px;white-space:pre;display:inline;fill:url(#linearGradient92);stroke:#3c3c3c;stroke-width:1.05833;stroke-linecap:square;stroke-linejoin:round;paint-order:markers stroke fill"
       d="m 169.60949,75.435872 h 3.76017 c 0.85458,0 1.28188,-0.38485 1.28188,-1.15455 v -1.491294 c 0,-0.7697 -0.4273,-1.15455 -1.28188,-1.15455 h -2.56375 v -1.731825 h 3.50379 v -0.817807 h -4.70021 v 3.367438 h 3.50379 c 0.23074,0 0.34184,0.105834 0.34184,0.30788 v 1.549021 c 0,0.202047 -0.1111,0.307881 -0.34184,0.307881 h -3.50379 z"
       id="path65" /></g><g
     inkscape:groupmode="layer"
     id="layer11"
     inkscape:label="Combo_6"
     transform="translate(-121.78189,-65.745807)"><path
       style="font-size:36px;font-family:Xolonium;-inkscape-font-specification:Xolonium;letter-spacing:10.5044px;white-space:pre;opacity:0.3;stroke:#000000;stroke-width:4.20177;stroke-linecap:square;stroke-linejoin:round;paint-order:markers stroke fill;filter:url(#filter3)"
       d="m 511.28839,270.45008 c 0,2.88 1.8,4.32 5.4,4.32 h 10.44 c 3.6,0 5.4,-1.44 5.4,-4.32 v -5.58 c 0,-2.88 -1.8,-4.32 -5.4,-4.32 h -10.8 v -4.176 c 0,-1.548 0.972,-2.304 2.88,-2.304 h 11.52 v -3.06 h -12.96 c -4.32,0 -6.48,1.728 -6.48,5.184 z m 5.04,0.108 v -6.948 h 9.72 c 0.972,0 1.44,0.396 1.44,1.152 v 5.796 c 0,0.756 -0.468,1.152 -1.44,1.152 h -8.28 c -0.972,0 -1.44,-0.396 -1.44,-1.152 z"
       transform="matrix(0.23738442,0,0,0.26725697,56.79871,2.4351278)"
       id="path76" /><path
       style="font-size:36px;font-family:Xolonium;-inkscape-font-specification:Xolonium;letter-spacing:10.5044px;white-space:pre;display:inline;fill:url(#linearGradient90);stroke:#3c3c3c;stroke-width:1.05833;stroke-linecap:square;stroke-linejoin:round;paint-order:markers stroke fill"
       d="m 178.17061,74.281322 c 0,0.7697 0.42729,1.15455 1.28187,1.15455 h 2.4783 c 0.85458,0 1.28187,-0.38485 1.28187,-1.15455 v -1.491294 c 0,-0.7697 -0.42729,-1.15455 -1.28187,-1.15455 h -2.56375 v -1.116065 c 0,-0.413714 0.23073,-0.61576 0.68366,-0.61576 h 2.73467 v -0.817807 h -3.0765 c -1.0255,0 -1.53825,0.46182 -1.53825,1.38546 z m 1.19642,0.02886 v -1.856901 h 2.30737 c 0.23074,0 0.34184,0.105834 0.34184,0.30788 v 1.549021 c 0,0.202047 -0.1111,0.307881 -0.34184,0.307881 h -1.96554 c -0.23074,0 -0.34183,-0.105834 -0.34183,-0.307881 z"
       id="path66" /></g><g
     inkscape:groupmode="layer"
     id="layer12"
     inkscape:label="Combo_7"
     transform="translate(-121.78189,-65.745807)"><path
       style="font-size:36px;font-family:Xolonium;-inkscape-font-specification:Xolonium;letter-spacing:10.5044px;white-space:pre;opacity:0.3;stroke:#000000;stroke-width:4.20177;stroke-linecap:square;stroke-linejoin:round;paint-order:markers stroke fill;filter:url(#filter3)"
       d="m 547.35276,254.07008 h 15.66 l -11.34,20.7 h 5.58 l 11.34,-20.7 v -3.06 h -21.24 z"
       transform="matrix(0.23738442,0,0,0.26725697,56.79871,2.4351278)"
       id="path77" /><path
       style="font-size:36px;font-family:Xolonium;-inkscape-font-specification:Xolonium;letter-spacing:10.5044px;white-space:pre;display:inline;fill:url(#linearGradient89);stroke:#3c3c3c;stroke-width:1.05833;stroke-linecap:square;stroke-linejoin:round;paint-order:markers stroke fill"
       d="m 186.73173,69.903653 h 3.71744 l -2.69194,5.532219 h 1.3246 l 2.69194,-5.532219 v -0.817807 h -5.04204 z"
       id="path67" /></g><g
     inkscape:groupmode="layer"
     id="layer13"
     inkscape:label="Combo_8"
     transform="translate(-121.78189,-65.745807)"><path
       style="font-size:36px;font-family:Xolonium;-inkscape-font-specification:Xolonium;letter-spacing:10.5044px;white-space:pre;opacity:0.3;stroke:#000000;stroke-width:4.20177;stroke-linecap:square;stroke-linejoin:round;paint-order:markers stroke fill;filter:url(#filter3)"
       d="m 583.41714,270.45008 c 0,2.88 1.8,4.32 5.4,4.32 h 10.44 c 3.6,0 5.4,-1.44 5.4,-4.32 v -4.572 c 0,-1.98 -0.828,-3.24 -2.52,-3.888 1.692,-0.648 2.52,-1.908 2.52,-3.888 v -2.772 c 0,-2.88 -1.8,-4.32 -5.4,-4.32 h -10.44 c -3.6,0 -5.4,1.44 -5.4,4.32 v 2.772 c 0,1.98 0.828,3.24 2.52,3.888 -1.692,0.648 -2.52,1.908 -2.52,3.888 z m 5.04,0.108 v -5.796 c 0,-0.756 0.468,-1.152 1.44,-1.152 h 8.28 c 0.972,0 1.44,0.396 1.44,1.152 v 5.796 c 0,0.756 -0.468,1.152 -1.44,1.152 h -8.28 c -0.972,0 -1.44,-0.396 -1.44,-1.152 z m 0,-11.16 v -4.176 c 0,-0.756 0.468,-1.152 1.44,-1.152 h 8.28 c 0.972,0 1.44,0.396 1.44,1.152 v 4.176 c 0,0.756 -0.468,1.152 -1.44,1.152 h -8.28 c -0.972,0 -1.44,-0.396 -1.44,-1.152 z"
       transform="matrix(0.23738442,0,0,0.26725697,56.79871,2.4351278)"
       id="path78" /><path
       style="font-size:36px;font-family:Xolonium;-inkscape-font-specification:Xolonium;letter-spacing:10.5044px;white-space:pre;display:inline;fill:url(#linearGradient88);stroke:#3c3c3c;stroke-width:1.05833;stroke-linecap:square;stroke-linejoin:round;paint-order:markers stroke fill"
       d="m 195.29285,74.281322 c 0,0.7697 0.42729,1.15455 1.28188,1.15455 h 2.47829 c 0.85458,0 1.28187,-0.38485 1.28187,-1.15455 v -1.221899 c 0,-0.529169 -0.19655,-0.865913 -0.5982,-1.039095 0.40165,-0.173183 0.5982,-0.509927 0.5982,-1.039095 v -0.740837 c 0,-0.7697 -0.42729,-1.15455 -1.28187,-1.15455 h -2.47829 c -0.85459,0 -1.28188,0.38485 -1.28188,1.15455 v 0.740837 c 0,0.529168 0.19655,0.865912 0.59821,1.039095 -0.40166,0.173182 -0.59821,0.509926 -0.59821,1.039095 z m 1.19642,0.02886 v -1.549021 c 0,-0.202046 0.11109,-0.30788 0.34183,-0.30788 h 1.96554 c 0.23074,0 0.34184,0.105834 0.34184,0.30788 v 1.549021 c 0,0.202047 -0.1111,0.307881 -0.34184,0.307881 h -1.96554 c -0.23074,0 -0.34183,-0.105834 -0.34183,-0.307881 z m 0,-2.982587 V 70.21153 c 0,-0.202047 0.11109,-0.30788 0.34183,-0.30788 h 1.96554 c 0.23074,0 0.34184,0.105833 0.34184,0.30788 v 1.116065 c 0,0.202046 -0.1111,0.30788 -0.34184,0.30788 h -1.96554 c -0.23074,0 -0.34183,-0.105834 -0.34183,-0.30788 z"
       id="path68" /></g><g
     inkscape:groupmode="layer"
     id="layer14"
     inkscape:label="Combo_9"
     transform="translate(-121.78189,-65.745807)"><path
       style="font-size:36px;font-family:Xolonium;-inkscape-font-specification:Xolonium;letter-spacing:10.5044px;white-space:pre;opacity:0.3;stroke:#000000;stroke-width:4.20177;stroke-linecap:square;stroke-linejoin:round;paint-order:markers stroke fill;filter:url(#filter3)"
       d="m 619.4815,259.29008 c 0,2.88 1.8,4.32 5.4,4.32 h 10.8 v 5.796 c 0,1.548 -0.972,2.304 -2.88,2.304 h -11.88 v 3.06 h 13.32 c 4.32,0 6.48,-1.728 6.48,-5.184 v -14.256 c 0,-2.88 -1.8,-4.32 -5.4,-4.32 h -10.44 c -3.6,0 -5.4,1.44 -5.4,4.32 z m 5.04,0.108 v -4.176 c 0,-0.756 0.468,-1.152 1.44,-1.152 h 8.28 c 0.972,0 1.44,0.396 1.44,1.152 v 5.328 h -9.72 c -0.972,0 -1.44,-0.396 -1.44,-1.152 z"
       transform="matrix(0.23738442,0,0,0.26725697,56.79871,2.4351278)"
       id="path79" /><path
       style="font-size:36px;font-family:Xolonium;-inkscape-font-specification:Xolonium;letter-spacing:10.5044px;white-space:pre;display:inline;fill:url(#linearGradient87);stroke:#3c3c3c;stroke-width:1.05833;stroke-linecap:square;stroke-linejoin:round;paint-order:markers stroke fill"
       d="m 203.85397,71.298734 c 0,0.7697 0.42729,1.15455 1.28187,1.15455 h 2.56375 v 1.549021 c 0,0.413714 -0.23073,0.615761 -0.68366,0.615761 h -2.82013 v 0.817806 h 3.16196 c 1.0255,0 1.53825,-0.46182 1.53825,-1.38546 v -3.810016 c 0,-0.7697 -0.42729,-1.15455 -1.28187,-1.15455 h -2.4783 c -0.85458,0 -1.28187,0.38485 -1.28187,1.15455 z m 1.19641,0.02886 v -1.116065 c 0,-0.202047 0.1111,-0.30788 0.34184,-0.30788 h 1.96554 c 0.23074,0 0.34183,0.105833 0.34183,0.30788 v 1.423945 h -2.30737 c -0.23074,0 -0.34184,-0.105834 -0.34184,-0.30788 z"
       id="path69" /></g></svg>
