<?xml version="1.0" encoding="UTF-8" standalone="no"?>
<!-- Created with Inkscape (http://www.inkscape.org/) -->

<svg
   width="640"
   height="360"
   viewBox="0 0 640 360"
   version="1.1"
   id="svg1"
   inkscape:version="1.4.3 (0d15f75, 2025-12-25)"
   sodipodi:docname="MainGame_ScoreBonusNumbers.svg"
   xml:space="preserve"
   inkscape:export-batch-name=""
   inkscape:export-batch-path="export_mg_hud_1080"
   xmlns:inkscape="http://www.inkscape.org/namespaces/inkscape"
   xmlns:sodipodi="http://sodipodi.sourceforge.net/DTD/sodipodi-0.dtd"
   xmlns:xlink="http://www.w3.org/1999/xlink"
   xmlns="http://www.w3.org/2000/svg"
   xmlns:svg="http://www.w3.org/2000/svg"><sodipodi:namedview
     id="namedview1"
     pagecolor="#a3a3a3"
     bordercolor="#000000"
     borderopacity="0.25"
     inkscape:showpageshadow="2"
     inkscape:pageopacity="0.0"
     inkscape:pagecheckerboard="0"
     inkscape:deskcolor="#d1d1d1"
     inkscape:document-units="px"
     inkscape:zoom="2"
     inkscape:cx="315.25"
     inkscape:cy="167.5"
     inkscape:window-width="1920"
     inkscape:window-height="1017"
     inkscape:window-x="-8"
     inkscape:window-y="-8"
     inkscape:window-maximized="1"
     inkscape:current-layer="layer1" /><defs
     id="defs1"><rect
       x="347.18943"
       y="146.3711"
       width="87.681241"
       height="72.124892"
       id="rect2" /><linearGradient
       id="linearGradient4"
       inkscape:collect="always"
       inkscape:label="score_outline"><stop
         style="stop-color:#4b4b4b;stop-opacity:1;"
         offset="0"
         id="stop5" /><stop
         style="stop-color:#292929;stop-opacity:1;"
         offset="1"
         id="stop8" /></linearGradient><linearGradient
       id="linearGradient1"
       inkscape:collect="always"
       inkscape:label="score"><stop
         style="stop-color:#f0f0f0;stop-opacity:1;"
         offset="0.50310558"
         id="stop2" /><stop
         style="stop-color:#a5a5a5;stop-opacity:1;"
         offset="1"
         id="stop1" /></linearGradient><rect
       x="86.082798"
       y="57.84764"
       width="458.64915"
       height="61.290952"
       id="rect1" /><linearGradient
       inkscape:collect="always"
       xlink:href="#linearGradient1"
       id="linearGradient2"
       x1="236.90616"
       y1="70.268921"
       x2="236.90616"
       y2="93.968254"
       gradientUnits="userSpaceOnUse" /><linearGradient
       inkscape:collect="always"
       xlink:href="#linearGradient4"
       id="linearGradient6"
       x1="236.90616"
       y1="70.26889"
       x2="236.90616"
       y2="93.968254"
       gradientUnits="userSpaceOnUse" /><filter
       inkscape:collect="always"
       style="color-interpolation-filters:sRGB"
       id="filter8"
       x="-0.45896715"
       y="-0.18358683"
       width="1.9179343"
       height="1.3671737"><feGaussianBlur
         inkscape:collect="always"
         stdDeviation="0.77923635"
         id="feGaussianBlur8" /></filter><linearGradient
       inkscape:collect="always"
       xlink:href="#linearGradient1"
       id="linearGradient5"
       x1="359.28906"
       y1="174.75"
       x2="359.28906"
       y2="198.20703"
       gradientUnits="userSpaceOnUse" /><linearGradient
       inkscape:collect="always"
       xlink:href="#linearGradient4"
       id="linearGradient9"
       x1="359.28906"
       y1="177.25"
       x2="359.28906"
       y2="195.70703"
       gradientUnits="userSpaceOnUse" /><filter
       inkscape:collect="always"
       style="color-interpolation-filters:sRGB"
       id="filter9"
       x="-0.24344974"
       y="-0.24344974"
       width="1.4868995"
       height="1.4868995"><feGaussianBlur
         inkscape:collect="always"
         stdDeviation="0.83056635"
         id="feGaussianBlur9" /></filter><filter
       inkscape:collect="always"
       style="color-interpolation-filters:sRGB"
       id="filter10"
       x="-0.18391056"
       y="-0.18391056"
       width="1.3678211"
       height="1.3678211"><feGaussianBlur
         inkscape:collect="always"
         stdDeviation="0.78170184"
         id="feGaussianBlur10" /></filter><linearGradient
       inkscape:collect="always"
       xlink:href="#linearGradient1"
       id="linearGradient64"
       gradientUnits="userSpaceOnUse"
       x1="236.90616"
       y1="70.268921"
       x2="236.90616"
       y2="93.968254" /><linearGradient
       inkscape:collect="always"
       xlink:href="#linearGradient4"
       id="linearGradient65"
       gradientUnits="userSpaceOnUse"
       x1="236.90616"
       y1="70.26889"
       x2="236.90616"
       y2="93.968254" /><linearGradient
       inkscape:collect="always"
       xlink:href="#linearGradient1"
       id="linearGradient66"
       gradientUnits="userSpaceOnUse"
       x1="236.90616"
       y1="70.268921"
       x2="236.90616"
       y2="93.968254" /><linearGradient
       inkscape:collect="always"
       xlink:href="#linearGradient4"
       id="linearGradient67"
       gradientUnits="userSpaceOnUse"
       x1="236.90616"
       y1="70.26889"
       x2="236.90616"
       y2="93.968254" /><linearGradient
       inkscape:collect="always"
       xlink:href="#linearGradient1"
       id="linearGradient68"
       gradientUnits="userSpaceOnUse"
       x1="236.90616"
       y1="70.268921"
       x2="236.90616"
       y2="93.968254" /><linearGradient
       inkscape:collect="always"
       xlink:href="#linearGradient4"
       id="linearGradient69"
       gradientUnits="userSpaceOnUse"
       x1="236.90616"
       y1="70.26889"
       x2="236.90616"
       y2="93.968254" /><linearGradient
       inkscape:collect="always"
       xlink:href="#linearGradient1"
       id="linearGradient70"
       gradientUnits="userSpaceOnUse"
       x1="236.90616"
       y1="70.268921"
       x2="236.90616"
       y2="93.968254" /><linearGradient
       inkscape:collect="always"
       xlink:href="#linearGradient4"
       id="linearGradient71"
       gradientUnits="userSpaceOnUse"
       x1="236.90616"
       y1="70.26889"
       x2="236.90616"
       y2="93.968254" /><linearGradient
       inkscape:collect="always"
       xlink:href="#linearGradient1"
       id="linearGradient72"
       gradientUnits="userSpaceOnUse"
       x1="236.90616"
       y1="70.268921"
       x2="236.90616"
       y2="93.968254" /><linearGradient
       inkscape:collect="always"
       xlink:href="#linearGradient4"
       id="linearGradient73"
       gradientUnits="userSpaceOnUse"
       x1="236.90616"
       y1="70.26889"
       x2="236.90616"
       y2="93.968254" /><linearGradient
       inkscape:collect="always"
       xlink:href="#linearGradient1"
       id="linearGradient74"
       gradientUnits="userSpaceOnUse"
       x1="236.90616"
       y1="70.268921"
       x2="236.90616"
       y2="93.968254" /><linearGradient
       inkscape:collect="always"
       xlink:href="#linearGradient4"
       id="linearGradient75"
       gradientUnits="userSpaceOnUse"
       x1="236.90616"
       y1="70.26889"
       x2="236.90616"
       y2="93.968254" /><linearGradient
       inkscape:collect="always"
       xlink:href="#linearGradient1"
       id="linearGradient76"
       gradientUnits="userSpaceOnUse"
       x1="236.90616"
       y1="70.268921"
       x2="236.90616"
       y2="93.968254" /><linearGradient
       inkscape:collect="always"
       xlink:href="#linearGradient4"
       id="linearGradient77"
       gradientUnits="userSpaceOnUse"
       x1="236.90616"
       y1="70.26889"
       x2="236.90616"
       y2="93.968254" /><linearGradient
       inkscape:collect="always"
       xlink:href="#linearGradient1"
       id="linearGradient78"
       gradientUnits="userSpaceOnUse"
       x1="236.90616"
       y1="70.268921"
       x2="236.90616"
       y2="93.968254" /><linearGradient
       inkscape:collect="always"
       xlink:href="#linearGradient4"
       id="linearGradient79"
       gradientUnits="userSpaceOnUse"
       x1="236.90616"
       y1="70.26889"
       x2="236.90616"
       y2="93.968254" /><linearGradient
       inkscape:collect="always"
       xlink:href="#linearGradient1"
       id="linearGradient80"
       gradientUnits="userSpaceOnUse"
       x1="236.90616"
       y1="70.268921"
       x2="236.90616"
       y2="93.968254" /><linearGradient
       inkscape:collect="always"
       xlink:href="#linearGradient4"
       id="linearGradient81"
       gradientUnits="userSpaceOnUse"
       x1="236.90616"
       y1="70.26889"
       x2="236.90616"
       y2="93.968254" /></defs><g
     inkscape:groupmode="layer"
     id="layer2"
     inkscape:label="refs" /><g
     inkscape:label="ScoreBonus_Plus"
     inkscape:groupmode="layer"
     id="layer1"
     style="display:inline"
     transform="matrix(0.6000055,0,0,0.6000055,256.83537,-17.942818)"><path
       d="m 494.56055,123.47105 h 6.15234 v 6.15234 h 6.15234 v -6.15234 h 6.15235 v -6.15235 h -6.15235 v -6.15234 h -6.15234 v 6.15234 h -6.15234 z"
       id="path9"
       style="font-size:60px;font-family:'Imagine Font';-inkscape-font-specification:'Imagine Font';letter-spacing:10px;white-space:pre;opacity:0.3;fill:#000000;stroke:#000000;stroke-width:5;stroke-linecap:square;stroke-opacity:1;paint-order:stroke markers fill;filter:url(#filter9)"
       aria-label="+"
       inkscape:label="shadow" /><path
       d="m 350.06055,189.55469 h 6.15234 v 6.15234 h 6.15234 v -6.15234 h 6.15235 v -6.15235 h -6.15235 V 177.25 h -6.15234 v 6.15234 h -6.15234 z"
       id="text2"
       style="font-size:60px;font-family:'Imagine Font';-inkscape-font-specification:'Imagine Font';letter-spacing:10px;white-space:pre;fill:url(#linearGradient5);stroke:url(#linearGradient9);stroke-width:5;stroke-linecap:square;paint-order:stroke markers fill"
       transform="translate(144.5,-67.5)"
       aria-label="+" /></g><g
     inkscape:groupmode="layer"
     id="layer16"
     inkscape:label="ScoreBonus_0"
     style="display:inline"
     transform="matrix(0.59999312,0,0,0.59999312,12.837006,15.978972)"><path
       style="font-size:35.6512px;font-family:'Imagine Font';-inkscape-font-specification:'Imagine Font';letter-spacing:10px;white-space:pre;opacity:0.3;fill:#000000;fill-opacity:1;stroke:#000000;stroke-width:2.97094;stroke-linecap:square;stroke-opacity:1;paint-order:stroke fill markers;filter:url(#filter10)"
       d="M 87.787997,90.818053 H 106.0662 V 72.53985 H 87.787997 Z m 3.65564,-3.655641 V 76.19549 h 10.966923 v 10.966922 z"
       transform="matrix(1.682971,0,0,1.682971,-109.99529,-76.478321)"
       id="path8" /><path
       style="font-size:35.6512px;font-family:'Imagine Font';-inkscape-font-specification:'Imagine Font';letter-spacing:10px;white-space:pre;fill:url(#linearGradient64);stroke:url(#linearGradient65);stroke-width:2.97094;stroke-linecap:square;paint-order:stroke fill markers"
       d="M 87.787997,90.818053 H 106.0662 V 72.53985 H 87.787997 Z m 3.65564,-3.655641 V 76.19549 h 10.966923 v 10.966922 z"
       transform="matrix(1.682971,0,0,1.682971,-109.99529,-78.118963)"
       id="text1" /></g><g
     inkscape:groupmode="layer"
     id="layer17"
     inkscape:label="ScoreBonus_1"
     style="display:inline"
     transform="matrix(0.60000618,0,0,0.60000618,34.314291,15.982434)"><path
       style="font-size:35.6512px;font-family:'Imagine Font';-inkscape-font-specification:'Imagine Font';letter-spacing:10px;white-space:pre;opacity:0.3;fill:#000000;fill-opacity:1;stroke:#000000;stroke-width:2.97094;stroke-linecap:square;stroke-opacity:1;paint-order:stroke fill markers;filter:url(#filter8)"
       d="m 119.68702,76.19549 h 3.65564 v 14.622563 h 3.65564 V 72.53985 h -7.31128 z"
       transform="matrix(1.682971,0,0,1.682971,-109.99529,-76.478321)"
       id="path45" /><path
       style="font-size:35.6512px;font-family:'Imagine Font';-inkscape-font-specification:'Imagine Font';letter-spacing:10px;white-space:pre;fill:url(#linearGradient66);stroke:url(#linearGradient67);stroke-width:2.97094;stroke-linecap:square;paint-order:stroke fill markers"
       d="m 119.68702,76.19549 h 3.65564 v 14.622563 h 3.65564 V 72.53985 h -7.31128 z"
       transform="matrix(1.682971,0,0,1.682971,-109.99529,-78.118963)"
       id="path36" /></g><g
     inkscape:groupmode="layer"
     id="layer18"
     inkscape:label="ScoreBonus_2"
     style="display:inline"
     transform="matrix(0.60000618,0,0,0.60000618,45.016915,15.982434)"><path
       style="font-size:35.6512px;font-family:'Imagine Font';-inkscape-font-specification:'Imagine Font';letter-spacing:10px;white-space:pre;opacity:0.3;fill:#000000;fill-opacity:1;stroke:#000000;stroke-width:2.97094;stroke-linecap:square;stroke-opacity:1;paint-order:stroke fill markers;filter:url(#filter8)"
       d="m 140.61913,90.818053 h 18.2782 v -3.655641 h -14.62256 v -3.655641 h 14.62256 V 72.53985 h -18.2782 v 3.65564 h 14.62256 v 3.655641 h -14.62256 z"
       transform="matrix(1.682971,0,0,1.682971,-109.99529,-76.478321)"
       id="path46" /><path
       style="font-size:35.6512px;font-family:'Imagine Font';-inkscape-font-specification:'Imagine Font';letter-spacing:10px;white-space:pre;fill:url(#linearGradient68);stroke:url(#linearGradient69);stroke-width:2.97094;stroke-linecap:square;paint-order:stroke fill markers"
       d="m 140.61913,90.818053 h 18.2782 v -3.655641 h -14.62256 v -3.655641 h 14.62256 V 72.53985 h -18.2782 v 3.65564 h 14.62256 v 3.655641 h -14.62256 z"
       transform="matrix(1.682971,0,0,1.682971,-109.99529,-78.118963)"
       id="path37" /></g><g
     inkscape:groupmode="layer"
     id="layer19"
     inkscape:label="ScoreBonus_3"
     style="display:inline"
     transform="matrix(0.60000618,0,0,0.60000618,66.49064,15.982434)"><path
       style="font-size:35.6512px;font-family:'Imagine Font';-inkscape-font-specification:'Imagine Font';letter-spacing:10px;white-space:pre;opacity:0.3;fill:#000000;fill-opacity:1;stroke:#000000;stroke-width:2.97094;stroke-linecap:square;stroke-opacity:1;paint-order:stroke fill markers;filter:url(#filter8)"
       d="m 172.51816,90.818053 h 18.2782 V 72.53985 h -18.2782 v 3.65564 h 14.62256 v 3.655641 h -7.31128 v 3.65564 h 7.31128 v 3.655641 h -14.62256 z"
       transform="matrix(1.682971,0,0,1.682971,-109.99529,-76.478321)"
       id="path47" /><path
       style="font-size:35.6512px;font-family:'Imagine Font';-inkscape-font-specification:'Imagine Font';letter-spacing:10px;white-space:pre;fill:url(#linearGradient70);stroke:url(#linearGradient71);stroke-width:2.97094;stroke-linecap:square;paint-order:stroke fill markers"
       d="m 172.51816,90.818053 h 18.2782 V 72.53985 h -18.2782 v 3.65564 h 14.62256 v 3.655641 h -7.31128 v 3.65564 h 7.31128 v 3.655641 h -14.62256 z"
       transform="matrix(1.682971,0,0,1.682971,-109.99529,-78.118963)"
       id="path38" /></g><g
     inkscape:groupmode="layer"
     id="layer20"
     inkscape:label="ScoreBonus_4"
     style="display:inline"
     transform="matrix(0.60000618,0,0,0.60000618,87.964365,15.982434)"><path
       style="font-size:35.6512px;font-family:'Imagine Font';-inkscape-font-specification:'Imagine Font';letter-spacing:10px;white-space:pre;opacity:0.3;fill:#000000;fill-opacity:1;stroke:#000000;stroke-width:2.97094;stroke-linecap:square;stroke-opacity:1;paint-order:stroke fill markers;filter:url(#filter8)"
       d="m 204.41719,83.506771 h 14.62256 v 7.311282 h 3.65564 V 72.53985 h -3.65564 v 7.311281 H 208.07283 V 72.53985 h -3.65564 z"
       transform="matrix(1.682971,0,0,1.682971,-109.99529,-76.478321)"
       id="path48" /><path
       style="font-size:35.6512px;font-family:'Imagine Font';-inkscape-font-specification:'Imagine Font';letter-spacing:10px;white-space:pre;fill:url(#linearGradient72);stroke:url(#linearGradient73);stroke-width:2.97094;stroke-linecap:square;paint-order:stroke fill markers"
       d="m 204.41719,83.506771 h 14.62256 v 7.311282 h 3.65564 V 72.53985 h -3.65564 v 7.311281 H 208.07283 V 72.53985 h -3.65564 z"
       transform="matrix(1.682971,0,0,1.682971,-109.99529,-78.118963)"
       id="path39" /></g><g
     inkscape:groupmode="layer"
     id="layer21"
     inkscape:label="ScoreBonus_5"
     style="display:inline"
     transform="matrix(0.60000618,0,0,0.60000618,109.43808,15.982434)"><path
       style="font-size:35.6512px;font-family:'Imagine Font';-inkscape-font-specification:'Imagine Font';letter-spacing:10px;white-space:pre;opacity:0.3;fill:#000000;fill-opacity:1;stroke:#000000;stroke-width:2.97094;stroke-linecap:square;stroke-opacity:1;paint-order:stroke fill markers;filter:url(#filter8)"
       d="m 236.31621,90.818053 h 18.2782 V 79.851131 H 239.97185 V 76.19549 h 14.62256 v -3.65564 h -18.2782 v 10.966921 h 14.62256 v 3.655641 h -14.62256 z"
       transform="matrix(1.682971,0,0,1.682971,-109.99529,-76.478321)"
       id="path49" /><path
       style="font-size:35.6512px;font-family:'Imagine Font';-inkscape-font-specification:'Imagine Font';letter-spacing:10px;white-space:pre;fill:url(#linearGradient74);stroke:url(#linearGradient75);stroke-width:2.97094;stroke-linecap:square;paint-order:stroke fill markers"
       d="m 236.31621,90.818053 h 18.2782 V 79.851131 H 239.97185 V 76.19549 h 14.62256 v -3.65564 h -18.2782 v 10.966921 h 14.62256 v 3.655641 h -14.62256 z"
       transform="matrix(1.682971,0,0,1.682971,-109.99529,-78.118963)"
       id="path40" /></g><g
     inkscape:groupmode="layer"
     id="layer22"
     inkscape:label="ScoreBonus_6"
     transform="matrix(0.60000618,0,0,0.60000618,130.91181,15.982434)"><path
       style="font-size:35.6512px;font-family:'Imagine Font';-inkscape-font-specification:'Imagine Font';letter-spacing:10px;white-space:pre;opacity:0.3;fill:#000000;fill-opacity:1;stroke:#000000;stroke-width:2.97094;stroke-linecap:square;stroke-opacity:1;paint-order:stroke fill markers;filter:url(#filter8)"
       d="m 268.21524,90.818053 h 18.27821 V 79.851131 H 271.87088 V 76.19549 h 14.62257 v -3.65564 h -18.27821 z m 3.65564,-3.655641 v -3.655641 h 10.96693 v 3.655641 z"
       transform="matrix(1.682971,0,0,1.682971,-109.99529,-76.478321)"
       id="path50" /><path
       style="font-size:35.6512px;font-family:'Imagine Font';-inkscape-font-specification:'Imagine Font';letter-spacing:10px;white-space:pre;fill:url(#linearGradient76);stroke:url(#linearGradient77);stroke-width:2.97094;stroke-linecap:square;paint-order:stroke fill markers"
       d="m 268.21524,90.818053 h 18.27821 V 79.851131 H 271.87088 V 76.19549 h 14.62257 v -3.65564 h -18.27821 z m 3.65564,-3.655641 v -3.655641 h 10.96693 v 3.655641 z"
       transform="matrix(1.682971,0,0,1.682971,-109.99529,-78.118963)"
       id="path41" /></g><g
     inkscape:groupmode="layer"
     id="layer23"
     inkscape:label="ScoreBonus_7"
     transform="matrix(0.60000618,0,0,0.60000618,152.38553,15.982434)"><path
       style="font-size:35.6512px;font-family:'Imagine Font';-inkscape-font-specification:'Imagine Font';letter-spacing:10px;white-space:pre;opacity:0.3;fill:#000000;fill-opacity:1;stroke:#000000;stroke-width:2.97094;stroke-linecap:square;stroke-opacity:1;paint-order:stroke fill markers;filter:url(#filter8)"
       d="m 300.11426,76.19549 h 14.62256 v 14.622563 h 3.65564 V 72.53985 h -18.2782 z"
       transform="matrix(1.682971,0,0,1.682971,-109.99529,-76.478321)"
       id="path51" /><path
       style="font-size:35.6512px;font-family:'Imagine Font';-inkscape-font-specification:'Imagine Font';letter-spacing:10px;white-space:pre;fill:url(#linearGradient78);stroke:url(#linearGradient79);stroke-width:2.97094;stroke-linecap:square;paint-order:stroke fill markers"
       d="m 300.11426,76.19549 h 14.62256 v 14.622563 h 3.65564 V 72.53985 h -18.2782 z"
       transform="matrix(1.682971,0,0,1.682971,-109.99529,-78.118963)"
       id="path42" /></g><g
     inkscape:groupmode="layer"
     id="layer24"
     inkscape:label="ScoreBonus_8"
     transform="matrix(0.60000618,0,0,0.60000618,173.85925,15.982434)"><path
       style="font-size:35.6512px;font-family:'Imagine Font';-inkscape-font-specification:'Imagine Font';letter-spacing:10px;white-space:pre;opacity:0.3;fill:#000000;fill-opacity:1;stroke:#000000;stroke-width:2.97094;stroke-linecap:square;stroke-opacity:1;paint-order:stroke fill markers;filter:url(#filter8)"
       d="M 332.01329,90.818053 H 350.2915 V 72.53985 h -18.27821 z m 3.65564,-3.655641 v -3.655641 h 10.96693 v 3.655641 z m 0,-7.311281 V 76.19549 h 10.96693 v 3.655641 z"
       transform="matrix(1.682971,0,0,1.682971,-109.99529,-76.478321)"
       id="path52" /><path
       style="font-size:35.6512px;font-family:'Imagine Font';-inkscape-font-specification:'Imagine Font';letter-spacing:10px;white-space:pre;fill:url(#linearGradient80);stroke:url(#linearGradient81);stroke-width:2.97094;stroke-linecap:square;paint-order:stroke fill markers"
       d="M 332.01329,90.818053 H 350.2915 V 72.53985 h -18.27821 z m 3.65564,-3.655641 v -3.655641 h 10.96693 v 3.655641 z m 0,-7.311281 V 76.19549 h 10.96693 v 3.655641 z"
       transform="matrix(1.682971,0,0,1.682971,-109.99529,-78.118963)"
       id="path43" /></g><g
     inkscape:groupmode="layer"
     id="layer25"
     inkscape:label="ScoreBonus_9"
     transform="matrix(0.60000618,0,0,0.60000618,195.33298,15.982434)"><path
       style="font-size:35.6512px;font-family:'Imagine Font';-inkscape-font-specification:'Imagine Font';letter-spacing:10px;white-space:pre;opacity:0.3;fill:#000000;fill-opacity:1;stroke:#000000;stroke-width:2.97094;stroke-linecap:square;stroke-opacity:1;paint-order:stroke fill markers;filter:url(#filter8)"
       d="m 363.91233,90.818053 h 18.2782 V 72.53985 h -18.2782 v 10.966921 h 14.62256 v 3.655641 h -14.62256 z m 3.65564,-10.966922 V 76.19549 h 10.96692 v 3.655641 z"
       transform="matrix(1.682971,0,0,1.682971,-109.99529,-76.478321)"
       id="path53" /><path
       style="font-size:35.6512px;font-family:'Imagine Font';-inkscape-font-specification:'Imagine Font';letter-spacing:10px;white-space:pre;fill:url(#linearGradient2);stroke:url(#linearGradient6);stroke-width:2.97094;stroke-linecap:square;paint-order:stroke fill markers"
       d="m 363.91233,90.818053 h 18.2782 V 72.53985 h -18.2782 v 10.966921 h 14.62256 v 3.655641 h -14.62256 z m 3.65564,-10.966922 V 76.19549 h 10.96692 v 3.655641 z"
       transform="matrix(1.682971,0,0,1.682971,-109.99529,-78.118963)"
       id="path44" /></g></svg>
